<svg width="24" height="24" viewBox="0 0 24 24" fill="none" xmlns="http://www.w3.org/2000/svg">
<path d="M10.7405 0.504189C11.4472 -0.168063 12.5528 -0.168063 13.2595 0.504189L22.1393 8.95062C22.6887 9.47323 23 10.2004 23 10.961V21.2333C23 22.7613 21.7687 24 20.25 24H16.5833C15.0645 24 13.8333 22.7613 13.8333 21.2333V16.6221C13.8333 16.1129 13.4229 15.7 12.9167 15.7H11.0833C10.5771 15.7 10.1667 16.1129 10.1667 16.6221V21.2333C10.1667 22.7613 8.93546 24 7.41667 24H3.75C2.23121 24 1 22.7613 1 21.2333V10.961C1 10.2004 1.3113 9.47323 1.86071 8.95062L10.7405 0.504189ZM12 1.84447L3.12023 10.2909C2.9371 10.4651 2.83333 10.7075 2.83333 10.961V21.2333C2.83333 21.7426 3.24374 22.1555 3.75 22.1555H7.41667C7.92292 22.1555 8.33333 21.7426 8.33333 21.2333V16.6221C8.33333 15.0942 9.56455 13.8555 11.0833 13.8555H12.9167C14.4355 13.8555 15.6667 15.0942 15.6667 16.6221V21.2333C15.6667 21.7426 16.0772 22.1555 16.5833 22.1555H20.25C20.7562 22.1555 21.1667 21.7426 21.1667 21.2333V10.961C21.1667 10.7075 21.0629 10.4651 20.8798 10.2909L12 1.84447Z" fill="#212121"/>
</svg>
