<svg width="24" height="24" viewBox="0 0 24 24" fill="none" xmlns="http://www.w3.org/2000/svg">
<path d="M7.14062 3.73538V3.05154C7.1422 2.50792 7.35885 1.98702 7.74325 1.60263C8.12765 1.21823 8.64855 1.00158 9.19216 1H18.766C19.3096 1.00158 19.8305 1.21823 20.2149 1.60263C20.5993 1.98702 20.816 2.50792 20.8175 3.05154V18.78L17.3983 16.0446" stroke="black" stroke-width="2" stroke-linejoin="round"/>
<path d="M15.3792 4.64185H6.1336C5.56824 4.64349 5.0265 4.8688 4.62673 5.26858C4.22696 5.66835 4.00164 6.21008 4 6.77545V22.4218L10.7564 16.7322L17.5128 22.4218V6.77545C17.5112 6.21008 17.2858 5.66835 16.8861 5.26858C16.4863 4.8688 15.9446 4.64349 15.3792 4.64185Z" stroke="black" stroke-width="2" stroke-linejoin="round"/>
</svg>
