<svg width="24" height="24" viewBox="0 0 24 24" fill="none" xmlns="http://www.w3.org/2000/svg">
<path d="M13.2595 0.504189C12.5528 -0.168063 11.4472 -0.168063 10.7405 0.504189L1.86071 8.95062C1.3113 9.47323 1 10.2004 1 10.961V21.2333C1 22.7613 2.23121 24 3.75 24H6.5C8.01879 24 9.25 22.7613 9.25 21.2333V16.6221C9.25 16.1129 9.66041 15.7 10.1667 15.7H13.8333C14.3396 15.7 14.75 16.1129 14.75 16.6221V21.2333C14.75 22.7613 15.9813 24 17.5 24H20.25C21.7687 24 23 22.7613 23 21.2333V10.961C23 10.2004 22.6887 9.47323 22.1393 8.95062L13.2595 0.504189Z" fill="#212121"/>
</svg>
