<svg width="24" height="24" viewBox="0 0 24 24" fill="none" xmlns="http://www.w3.org/2000/svg">
<g clip-path="url(#clip0_4844_42)">
<path d="M12 24C8.8174 24 5.76516 22.7357 3.51472 20.4853C1.26428 18.2348 0 15.1826 0 12C0 8.8174 1.26428 5.76516 3.51472 3.51472C5.76516 1.26428 8.8174 0 12 0C15.1826 0 18.2348 1.26428 20.4853 3.51472C22.7357 5.76516 24 8.8174 24 12C24 15.1826 22.7357 18.2348 20.4853 20.4853C18.2348 22.7357 15.1826 24 12 24ZM9.456 9.456L5.208 18.792L14.544 14.544L18.792 5.208L9.456 9.456ZM12 13.2C11.6817 13.2 11.3765 13.0736 11.1515 12.8485C10.9264 12.6235 10.8 12.3183 10.8 12C10.8 11.6817 10.9264 11.3765 11.1515 11.1515C11.3765 10.9264 11.6817 10.8 12 10.8C12.3183 10.8 12.6235 10.9264 12.8485 11.1515C13.0736 11.3765 13.2 11.6817 13.2 12C13.2 12.3183 13.0736 12.6235 12.8485 12.8485C12.6235 13.0736 12.3183 13.2 12 13.2Z" fill="black"/>
</g>
<defs>
<clipPath id="clip0_4844_42">
<rect width="24" height="24" fill="white"/>
</clipPath>
</defs>
</svg>
